<?xml version="1.0" encoding="utf-8" standalone="no"?>
<!DOCTYPE svg PUBLIC "-//W3C//DTD SVG 1.1//EN"
  "http://www.w3.org/Graphics/SVG/1.1/DTD/svg11.dtd">
<svg xmlns:xlink="http://www.w3.org/1999/xlink" width="903.890625pt" height="643.684889pt" viewBox="0 0 903.890625 643.684889" xmlns="http://www.w3.org/2000/svg" version="1.1">
 <metadata>
  <rdf:RDF xmlns:dc="http://purl.org/dc/elements/1.1/" xmlns:cc="http://creativecommons.org/ns#" xmlns:rdf="http://www.w3.org/1999/02/22-rdf-syntax-ns#">
   <cc:Work>
    <dc:type rdf:resource="http://purl.org/dc/dcmitype/StillImage"/>
    <dc:date>2022-10-03T19:50:55.967454</dc:date>
    <dc:format>image/svg+xml</dc:format>
    <dc:creator>
     <cc:Agent>
      <dc:title>Matplotlib v3.5.2, https://matplotlib.org/</dc:title>
     </cc:Agent>
    </dc:creator>
   </cc:Work>
  </rdf:RDF>
 </metadata>
 <defs>
  <style type="text/css">*{stroke-linejoin: round; stroke-linecap: butt}</style>
 </defs>
 <g id="figure_1">
  <g id="patch_1">
   <path d="M 0 643.684889 
L 903.890625 643.684889 
L 903.890625 0 
L 0 0 
L 0 643.684889 
z
" style="fill: none"/>
  </g>
  <g id="axes_1">
   <g id="patch_2">
    <path d="M 59.690625 457.198125 
L 896.690625 457.198125 
L 896.690625 22.318125 
L 59.690625 22.318125 
z
" style="fill: #ffffff"/>
   </g>
   <g id="patch_3">
    <path d="M 66.665625 457.198125 
L 80.615625 457.198125 
L 80.615625 412.996398 
L 66.665625 412.996398 
z
" clip-path="url(#p9aed26becb)" style="fill: #3274a1"/>
   </g>
   <g id="patch_4">
    <path d="M 136.415625 457.198125 
L 150.365625 457.198125 
L 150.365625 391.623294 
L 136.415625 391.623294 
z
" clip-path="url(#p9aed26becb)" style="fill: #3274a1"/>
   </g>
   <g id="patch_5">
    <path d="M 206.165625 457.198125 
L 220.115625 457.198125 
L 220.115625 374.987943 
L 206.165625 374.987943 
z
" clip-path="url(#p9aed26becb)" style="fill: #3274a1"/>
   </g>
   <g id="patch_6">
    <path d="M 275.915625 457.198125 
L 289.865625 457.198125 
L 289.865625 424.580783 
L 275.915625 424.580783 
z
" clip-path="url(#p9aed26becb)" style="fill: #3274a1"/>
   </g>
   <g id="patch_7">
    <path d="M 345.665625 457.198125 
L 359.615625 457.198125 
L 359.615625 379.306951 
L 345.665625 379.306951 
z
" clip-path="url(#p9aed26becb)" style="fill: #3274a1"/>
   </g>
   <g id="patch_8">
    <path d="M 415.415625 457.198125 
L 429.365625 457.198125 
L 429.365625 407.40742 
L 415.415625 407.40742 
z
" clip-path="url(#p9aed26becb)" style="fill: #3274a1"/>
   </g>
   <g id="patch_9">
    <path d="M 485.165625 457.198125 
L 499.115625 457.198125 
L 499.115625 396.836842 
L 485.165625 396.836842 
z
" clip-path="url(#p9aed26becb)" style="fill: #3274a1"/>
   </g>
   <g id="patch_10">
    <path d="M 554.915625 457.198125 
L 568.865625 457.198125 
L 568.865625 420.499764 
L 554.915625 420.499764 
z
" clip-path="url(#p9aed26becb)" style="fill: #3274a1"/>
   </g>
   <g id="patch_11">
    <path d="M 624.665625 457.198125 
L 638.615625 457.198125 
L 638.615625 393.098746 
L 624.665625 393.098746 
z
" clip-path="url(#p9aed26becb)" style="fill: #3274a1"/>
   </g>
   <g id="patch_12">
    <path d="M 694.415625 457.198125 
L 708.365625 457.198125 
L 708.365625 99.539236 
L 694.415625 99.539236 
z
" clip-path="url(#p9aed26becb)" style="fill: #3274a1"/>
   </g>
   <g id="patch_13">
    <path d="M 764.165625 457.198125 
L 778.115625 457.198125 
L 778.115625 387.2162 
L 764.165625 387.2162 
z
" clip-path="url(#p9aed26becb)" style="fill: #3274a1"/>
   </g>
   <g id="patch_14">
    <path d="M 833.915625 457.198125 
L 847.865625 457.198125 
L 847.865625 431.825582 
L 833.915625 431.825582 
z
" clip-path="url(#p9aed26becb)" style="fill: #3274a1"/>
   </g>
   <g id="patch_15">
    <path d="M 80.615625 457.198125 
L 94.565625 457.198125 
L 94.565625 427.903687 
L 80.615625 427.903687 
z
" clip-path="url(#p9aed26becb)" style="fill: #e1812c"/>
   </g>
   <g id="patch_16">
    <path d="M 150.365625 457.198125 
L 164.315625 457.198125 
L 164.315625 418.890603 
L 150.365625 418.890603 
z
" clip-path="url(#p9aed26becb)" style="fill: #e1812c"/>
   </g>
   <g id="patch_17">
    <path d="M 220.115625 457.198125 
L 234.065625 457.198125 
L 234.065625 410.750118 
L 220.115625 410.750118 
z
" clip-path="url(#p9aed26becb)" style="fill: #e1812c"/>
   </g>
   <g id="patch_18">
    <path d="M 289.865625 457.198125 
L 303.815625 457.198125 
L 303.815625 431.161214 
L 289.865625 431.161214 
z
" clip-path="url(#p9aed26becb)" style="fill: #e1812c"/>
   </g>
   <g id="patch_19">
    <path d="M 359.615625 457.198125 
L 373.565625 457.198125 
L 373.565625 404.38654 
L 359.615625 404.38654 
z
" clip-path="url(#p9aed26becb)" style="fill: #e1812c"/>
   </g>
   <g id="patch_20">
    <path d="M 429.365625 457.198125 
L 443.315625 457.198125 
L 443.315625 426.840356 
L 429.365625 426.840356 
z
" clip-path="url(#p9aed26becb)" style="fill: #e1812c"/>
   </g>
   <g id="patch_21">
    <path d="M 499.115625 457.198125 
L 513.065625 457.198125 
L 513.065625 418.545672 
L 499.115625 418.545672 
z
" clip-path="url(#p9aed26becb)" style="fill: #e1812c"/>
   </g>
   <g id="patch_22">
    <path d="M 568.865625 457.198125 
L 582.815625 457.198125 
L 582.815625 428.213597 
L 568.865625 428.213597 
z
" clip-path="url(#p9aed26becb)" style="fill: #e1812c"/>
   </g>
   <g id="patch_23">
    <path d="M 638.615625 457.198125 
L 652.565625 457.198125 
L 652.565625 420.616311 
L 638.615625 420.616311 
z
" clip-path="url(#p9aed26becb)" style="fill: #e1812c"/>
   </g>
   <g id="patch_24">
    <path d="M 0 0 
z
" clip-path="url(#p9aed26becb)" style="fill: #e1812c"/>
   </g>
   <g id="patch_25">
    <path d="M 0 0 
z
" clip-path="url(#p9aed26becb)" style="fill: #e1812c"/>
   </g>
   <g id="patch_26">
    <path d="M 0 0 
z
" clip-path="url(#p9aed26becb)" style="fill: #e1812c"/>
   </g>
   <g id="patch_27">
    <path d="M 94.565625 457.198125 
L 108.515625 457.198125 
L 108.515625 425.147301 
L 94.565625 425.147301 
z
" clip-path="url(#p9aed26becb)" style="fill: #3a923a"/>
   </g>
   <g id="patch_28">
    <path d="M 164.315625 457.198125 
L 178.265625 457.198125 
L 178.265625 397.232462 
L 164.315625 397.232462 
z
" clip-path="url(#p9aed26becb)" style="fill: #3a923a"/>
   </g>
   <g id="patch_29">
    <path d="M 234.065625 457.198125 
L 248.015625 457.198125 
L 248.015625 385.706794 
L 234.065625 385.706794 
z
" clip-path="url(#p9aed26becb)" style="fill: #3a923a"/>
   </g>
   <g id="patch_30">
    <path d="M 303.815625 457.198125 
L 317.765625 457.198125 
L 317.765625 432.313242 
L 303.815625 432.313242 
z
" clip-path="url(#p9aed26becb)" style="fill: #3a923a"/>
   </g>
   <g id="patch_31">
    <path d="M 373.565625 457.198125 
L 387.515625 457.198125 
L 387.515625 394.981823 
L 373.565625 394.981823 
z
" clip-path="url(#p9aed26becb)" style="fill: #3a923a"/>
   </g>
   <g id="patch_32">
    <path d="M 443.315625 457.198125 
L 457.265625 457.198125 
L 457.265625 421.577158 
L 443.315625 421.577158 
z
" clip-path="url(#p9aed26becb)" style="fill: #3a923a"/>
   </g>
   <g id="patch_33">
    <path d="M 513.065625 457.198125 
L 527.015625 457.198125 
L 527.015625 410.22378 
L 513.065625 410.22378 
z
" clip-path="url(#p9aed26becb)" style="fill: #3a923a"/>
   </g>
   <g id="patch_34">
    <path d="M 582.815625 457.198125 
L 596.765625 457.198125 
L 596.765625 425.486453 
L 582.815625 425.486453 
z
" clip-path="url(#p9aed26becb)" style="fill: #3a923a"/>
   </g>
   <g id="patch_35">
    <path d="M 0 0 
z
" clip-path="url(#p9aed26becb)" style="fill: #3a923a"/>
   </g>
   <g id="patch_36">
    <path d="M 0 0 
z
" clip-path="url(#p9aed26becb)" style="fill: #3a923a"/>
   </g>
   <g id="patch_37">
    <path d="M 0 0 
z
" clip-path="url(#p9aed26becb)" style="fill: #3a923a"/>
   </g>
   <g id="patch_38">
    <path d="M 0 0 
z
" clip-path="url(#p9aed26becb)" style="fill: #3a923a"/>
   </g>
   <g id="patch_39">
    <path d="M 108.515625 457.198125 
L 122.465625 457.198125 
L 122.465625 425.868078 
L 108.515625 425.868078 
z
" clip-path="url(#p9aed26becb)" style="fill: #c03d3e"/>
   </g>
   <g id="patch_40">
    <path d="M 178.265625 457.198125 
L 192.215625 457.198125 
L 192.215625 400.553623 
L 178.265625 400.553623 
z
" clip-path="url(#p9aed26becb)" style="fill: #c03d3e"/>
   </g>
   <g id="patch_41">
    <path d="M 248.015625 457.198125 
L 261.965625 457.198125 
L 261.965625 388.288353 
L 248.015625 388.288353 
z
" clip-path="url(#p9aed26becb)" style="fill: #c03d3e"/>
   </g>
   <g id="patch_42">
    <path d="M 317.765625 457.198125 
L 331.715625 457.198125 
L 331.715625 433.037285 
L 317.765625 433.037285 
z
" clip-path="url(#p9aed26becb)" style="fill: #c03d3e"/>
   </g>
   <g id="patch_43">
    <path d="M 387.515625 457.198125 
L 401.465625 457.198125 
L 401.465625 393.496718 
L 387.515625 393.496718 
z
" clip-path="url(#p9aed26becb)" style="fill: #c03d3e"/>
   </g>
   <g id="patch_44">
    <path d="M 457.265625 457.198125 
L 471.215625 457.198125 
L 471.215625 426.196227 
L 457.265625 426.196227 
z
" clip-path="url(#p9aed26becb)" style="fill: #c03d3e"/>
   </g>
   <g id="patch_45">
    <path d="M 527.015625 457.198125 
L 540.965625 457.198125 
L 540.965625 414.843746 
L 527.015625 414.843746 
z
" clip-path="url(#p9aed26becb)" style="fill: #c03d3e"/>
   </g>
   <g id="patch_46">
    <path d="M 596.765625 457.198125 
L 610.715625 457.198125 
L 610.715625 418.557595 
L 596.765625 418.557595 
z
" clip-path="url(#p9aed26becb)" style="fill: #c03d3e"/>
   </g>
   <g id="patch_47">
    <path d="M 0 0 
z
" clip-path="url(#p9aed26becb)" style="fill: #c03d3e"/>
   </g>
   <g id="patch_48">
    <path d="M 0 0 
z
" clip-path="url(#p9aed26becb)" style="fill: #c03d3e"/>
   </g>
   <g id="patch_49">
    <path d="M 0 0 
z
" clip-path="url(#p9aed26becb)" style="fill: #c03d3e"/>
   </g>
   <g id="patch_50">
    <path d="M 0 0 
z
" clip-path="url(#p9aed26becb)" style="fill: #c03d3e"/>
   </g>
   <g id="matplotlib.axis_1">
    <g id="xtick_1">
     <g id="line2d_1">
      <defs>
       <path id="mf62303cc85" d="M 0 0 
L 0 3.5 
" style="stroke: #000000; stroke-width: 0.8"/>
      </defs>
      <g>
       <use xlink:href="#mf62303cc85" x="94.565625" y="457.198125" style="stroke: #000000; stroke-width: 0.8"/>
      </g>
     </g>
     <g id="text_1">
      <!-- IndiGo -->
      <g transform="translate(88.885001 495.953726)rotate(-60)scale(0.1 -0.1)">
       <defs>
        <path id="DejaVuSans-49" d="M 628 4666 
L 1259 4666 
L 1259 0 
L 628 0 
L 628 4666 
z
" transform="scale(0.015625)"/>
        <path id="DejaVuSans-6e" d="M 3513 2113 
L 3513 0 
L 2938 0 
L 2938 2094 
Q 2938 2591 2744 2837 
Q 2550 3084 2163 3084 
Q 1697 3084 1428 2787 
Q 1159 2491 1159 1978 
L 1159 0 
L 581 0 
L 581 3500 
L 1159 3500 
L 1159 2956 
Q 1366 3272 1645 3428 
Q 1925 3584 2291 3584 
Q 2894 3584 3203 3211 
Q 3513 2838 3513 2113 
z
" transform="scale(0.015625)"/>
        <path id="DejaVuSans-64" d="M 2906 2969 
L 2906 4863 
L 3481 4863 
L 3481 0 
L 2906 0 
L 2906 525 
Q 2725 213 2448 61 
Q 2172 -91 1784 -91 
Q 1150 -91 751 415 
Q 353 922 353 1747 
Q 353 2572 751 3078 
Q 1150 3584 1784 3584 
Q 2172 3584 2448 3432 
Q 2725 3281 2906 2969 
z
M 947 1747 
Q 947 1113 1208 752 
Q 1469 391 1925 391 
Q 2381 391 2643 752 
Q 2906 1113 2906 1747 
Q 2906 2381 2643 2742 
Q 2381 3103 1925 3103 
Q 1469 3103 1208 2742 
Q 947 2381 947 1747 
z
" transform="scale(0.015625)"/>
        <path id="DejaVuSans-69" d="M 603 3500 
L 1178 3500 
L 1178 0 
L 603 0 
L 603 3500 
z
M 603 4863 
L 1178 4863 
L 1178 4134 
L 603 4134 
L 603 4863 
z
" transform="scale(0.015625)"/>
        <path id="DejaVuSans-47" d="M 3809 666 
L 3809 1919 
L 2778 1919 
L 2778 2438 
L 4434 2438 
L 4434 434 
Q 4069 175 3628 42 
Q 3188 -91 2688 -91 
Q 1594 -91 976 548 
Q 359 1188 359 2328 
Q 359 3472 976 4111 
Q 1594 4750 2688 4750 
Q 3144 4750 3555 4637 
Q 3966 4525 4313 4306 
L 4313 3634 
Q 3963 3931 3569 4081 
Q 3175 4231 2741 4231 
Q 1884 4231 1454 3753 
Q 1025 3275 1025 2328 
Q 1025 1384 1454 906 
Q 1884 428 2741 428 
Q 3075 428 3337 486 
Q 3600 544 3809 666 
z
" transform="scale(0.015625)"/>
        <path id="DejaVuSans-6f" d="M 1959 3097 
Q 1497 3097 1228 2736 
Q 959 2375 959 1747 
Q 959 1119 1226 758 
Q 1494 397 1959 397 
Q 2419 397 2687 759 
Q 2956 1122 2956 1747 
Q 2956 2369 2687 2733 
Q 2419 3097 1959 3097 
z
M 1959 3584 
Q 2709 3584 3137 3096 
Q 3566 2609 3566 1747 
Q 3566 888 3137 398 
Q 2709 -91 1959 -91 
Q 1206 -91 779 398 
Q 353 888 353 1747 
Q 353 2609 779 3096 
Q 1206 3584 1959 3584 
z
" transform="scale(0.015625)"/>
       </defs>
       <use xlink:href="#DejaVuSans-49"/>
       <use xlink:href="#DejaVuSans-6e" x="29.492188"/>
       <use xlink:href="#DejaVuSans-64" x="92.871094"/>
       <use xlink:href="#DejaVuSans-69" x="156.347656"/>
       <use xlink:href="#DejaVuSans-47" x="184.130859"/>
       <use xlink:href="#DejaVuSans-6f" x="261.621094"/>
      </g>
     </g>
    </g>
    <g id="xtick_2">
     <g id="line2d_2">
      <g>
       <use xlink:href="#mf62303cc85" x="164.315625" y="457.198125" style="stroke: #000000; stroke-width: 0.8"/>
      </g>
     </g>
     <g id="text_2">
      <!-- Air India -->
      <g transform="translate(156.342814 503.894097)rotate(-60)scale(0.1 -0.1)">
       <defs>
        <path id="DejaVuSans-41" d="M 2188 4044 
L 1331 1722 
L 3047 1722 
L 2188 4044 
z
M 1831 4666 
L 2547 4666 
L 4325 0 
L 3669 0 
L 3244 1197 
L 1141 1197 
L 716 0 
L 50 0 
L 1831 4666 
z
" transform="scale(0.015625)"/>
        <path id="DejaVuSans-72" d="M 2631 2963 
Q 2534 3019 2420 3045 
Q 2306 3072 2169 3072 
Q 1681 3072 1420 2755 
Q 1159 2438 1159 1844 
L 1159 0 
L 581 0 
L 581 3500 
L 1159 3500 
L 1159 2956 
Q 1341 3275 1631 3429 
Q 1922 3584 2338 3584 
Q 2397 3584 2469 3576 
Q 2541 3569 2628 3553 
L 2631 2963 
z
" transform="scale(0.015625)"/>
        <path id="DejaVuSans-20" transform="scale(0.015625)"/>
        <path id="DejaVuSans-61" d="M 2194 1759 
Q 1497 1759 1228 1600 
Q 959 1441 959 1056 
Q 959 750 1161 570 
Q 1363 391 1709 391 
Q 2188 391 2477 730 
Q 2766 1069 2766 1631 
L 2766 1759 
L 2194 1759 
z
M 3341 1997 
L 3341 0 
L 2766 0 
L 2766 531 
Q 2569 213 2275 61 
Q 1981 -91 1556 -91 
Q 1019 -91 701 211 
Q 384 513 384 1019 
Q 384 1609 779 1909 
Q 1175 2209 1959 2209 
L 2766 2209 
L 2766 2266 
Q 2766 2663 2505 2880 
Q 2244 3097 1772 3097 
Q 1472 3097 1187 3025 
Q 903 2953 641 2809 
L 641 3341 
Q 956 3463 1253 3523 
Q 1550 3584 1831 3584 
Q 2591 3584 2966 3190 
Q 3341 2797 3341 1997 
z
" transform="scale(0.015625)"/>
       </defs>
       <use xlink:href="#DejaVuSans-41"/>
       <use xlink:href="#DejaVuSans-69" x="68.408203"/>
       <use xlink:href="#DejaVuSans-72" x="96.191406"/>
       <use xlink:href="#DejaVuSans-20" x="137.304688"/>
       <use xlink:href="#DejaVuSans-49" x="169.091797"/>
       <use xlink:href="#DejaVuSans-6e" x="198.583984"/>
       <use xlink:href="#DejaVuSans-64" x="261.962891"/>
       <use xlink:href="#DejaVuSans-69" x="325.439453"/>
       <use xlink:href="#DejaVuSans-61" x="353.222656"/>
      </g>
     </g>
    </g>
    <g id="xtick_3">
     <g id="line2d_3">
      <g>
       <use xlink:href="#mf62303cc85" x="234.065625" y="457.198125" style="stroke: #000000; stroke-width: 0.8"/>
      </g>
     </g>
     <g id="text_3">
      <!-- Jet Airways -->
      <g transform="translate(222.613908 515.945381)rotate(-60)scale(0.1 -0.1)">
       <defs>
        <path id="DejaVuSans-4a" d="M 628 4666 
L 1259 4666 
L 1259 325 
Q 1259 -519 939 -900 
Q 619 -1281 -91 -1281 
L -331 -1281 
L -331 -750 
L -134 -750 
Q 284 -750 456 -515 
Q 628 -281 628 325 
L 628 4666 
z
" transform="scale(0.015625)"/>
        <path id="DejaVuSans-65" d="M 3597 1894 
L 3597 1613 
L 953 1613 
Q 991 1019 1311 708 
Q 1631 397 2203 397 
Q 2534 397 2845 478 
Q 3156 559 3463 722 
L 3463 178 
Q 3153 47 2828 -22 
Q 2503 -91 2169 -91 
Q 1331 -91 842 396 
Q 353 884 353 1716 
Q 353 2575 817 3079 
Q 1281 3584 2069 3584 
Q 2775 3584 3186 3129 
Q 3597 2675 3597 1894 
z
M 3022 2063 
Q 3016 2534 2758 2815 
Q 2500 3097 2075 3097 
Q 1594 3097 1305 2825 
Q 1016 2553 972 2059 
L 3022 2063 
z
" transform="scale(0.015625)"/>
        <path id="DejaVuSans-74" d="M 1172 4494 
L 1172 3500 
L 2356 3500 
L 2356 3053 
L 1172 3053 
L 1172 1153 
Q 1172 725 1289 603 
Q 1406 481 1766 481 
L 2356 481 
L 2356 0 
L 1766 0 
Q 1100 0 847 248 
Q 594 497 594 1153 
L 594 3053 
L 172 3053 
L 172 3500 
L 594 3500 
L 594 4494 
L 1172 4494 
z
" transform="scale(0.015625)"/>
        <path id="DejaVuSans-77" d="M 269 3500 
L 844 3500 
L 1563 769 
L 2278 3500 
L 2956 3500 
L 3675 769 
L 4391 3500 
L 4966 3500 
L 4050 0 
L 3372 0 
L 2619 2869 
L 1863 0 
L 1184 0 
L 269 3500 
z
" transform="scale(0.015625)"/>
        <path id="DejaVuSans-79" d="M 2059 -325 
Q 1816 -950 1584 -1140 
Q 1353 -1331 966 -1331 
L 506 -1331 
L 506 -850 
L 844 -850 
Q 1081 -850 1212 -737 
Q 1344 -625 1503 -206 
L 1606 56 
L 191 3500 
L 800 3500 
L 1894 763 
L 2988 3500 
L 3597 3500 
L 2059 -325 
z
" transform="scale(0.015625)"/>
        <path id="DejaVuSans-73" d="M 2834 3397 
L 2834 2853 
Q 2591 2978 2328 3040 
Q 2066 3103 1784 3103 
Q 1356 3103 1142 2972 
Q 928 2841 928 2578 
Q 928 2378 1081 2264 
Q 1234 2150 1697 2047 
L 1894 2003 
Q 2506 1872 2764 1633 
Q 3022 1394 3022 966 
Q 3022 478 2636 193 
Q 2250 -91 1575 -91 
Q 1294 -91 989 -36 
Q 684 19 347 128 
L 347 722 
Q 666 556 975 473 
Q 1284 391 1588 391 
Q 1994 391 2212 530 
Q 2431 669 2431 922 
Q 2431 1156 2273 1281 
Q 2116 1406 1581 1522 
L 1381 1569 
Q 847 1681 609 1914 
Q 372 2147 372 2553 
Q 372 3047 722 3315 
Q 1072 3584 1716 3584 
Q 2034 3584 2315 3537 
Q 2597 3491 2834 3397 
z
" transform="scale(0.015625)"/>
       </defs>
       <use xlink:href="#DejaVuSans-4a"/>
       <use xlink:href="#DejaVuSans-65" x="29.492188"/>
       <use xlink:href="#DejaVuSans-74" x="91.015625"/>
       <use xlink:href="#DejaVuSans-20" x="130.224609"/>
       <use xlink:href="#DejaVuSans-41" x="162.011719"/>
       <use xlink:href="#DejaVuSans-69" x="230.419922"/>
       <use xlink:href="#DejaVuSans-72" x="258.203125"/>
       <use xlink:href="#DejaVuSans-77" x="299.316406"/>
       <use xlink:href="#DejaVuSans-61" x="381.103516"/>
       <use xlink:href="#DejaVuSans-79" x="442.382812"/>
       <use xlink:href="#DejaVuSans-73" x="501.5625"/>
      </g>
     </g>
    </g>
    <g id="xtick_4">
     <g id="line2d_4">
      <g>
       <use xlink:href="#mf62303cc85" x="303.815625" y="457.198125" style="stroke: #000000; stroke-width: 0.8"/>
      </g>
     </g>
     <g id="text_4">
      <!-- SpiceJet -->
      <g transform="translate(296.167814 502.768264)rotate(-60)scale(0.1 -0.1)">
       <defs>
        <path id="DejaVuSans-53" d="M 3425 4513 
L 3425 3897 
Q 3066 4069 2747 4153 
Q 2428 4238 2131 4238 
Q 1616 4238 1336 4038 
Q 1056 3838 1056 3469 
Q 1056 3159 1242 3001 
Q 1428 2844 1947 2747 
L 2328 2669 
Q 3034 2534 3370 2195 
Q 3706 1856 3706 1288 
Q 3706 609 3251 259 
Q 2797 -91 1919 -91 
Q 1588 -91 1214 -16 
Q 841 59 441 206 
L 441 856 
Q 825 641 1194 531 
Q 1563 422 1919 422 
Q 2459 422 2753 634 
Q 3047 847 3047 1241 
Q 3047 1584 2836 1778 
Q 2625 1972 2144 2069 
L 1759 2144 
Q 1053 2284 737 2584 
Q 422 2884 422 3419 
Q 422 4038 858 4394 
Q 1294 4750 2059 4750 
Q 2388 4750 2728 4690 
Q 3069 4631 3425 4513 
z
" transform="scale(0.015625)"/>
        <path id="DejaVuSans-70" d="M 1159 525 
L 1159 -1331 
L 581 -1331 
L 581 3500 
L 1159 3500 
L 1159 2969 
Q 1341 3281 1617 3432 
Q 1894 3584 2278 3584 
Q 2916 3584 3314 3078 
Q 3713 2572 3713 1747 
Q 3713 922 3314 415 
Q 2916 -91 2278 -91 
Q 1894 -91 1617 61 
Q 1341 213 1159 525 
z
M 3116 1747 
Q 3116 2381 2855 2742 
Q 2594 3103 2138 3103 
Q 1681 3103 1420 2742 
Q 1159 2381 1159 1747 
Q 1159 1113 1420 752 
Q 1681 391 2138 391 
Q 2594 391 2855 752 
Q 3116 1113 3116 1747 
z
" transform="scale(0.015625)"/>
        <path id="DejaVuSans-63" d="M 3122 3366 
L 3122 2828 
Q 2878 2963 2633 3030 
Q 2388 3097 2138 3097 
Q 1578 3097 1268 2742 
Q 959 2388 959 1747 
Q 959 1106 1268 751 
Q 1578 397 2138 397 
Q 2388 397 2633 464 
Q 2878 531 3122 666 
L 3122 134 
Q 2881 22 2623 -34 
Q 2366 -91 2075 -91 
Q 1284 -91 818 406 
Q 353 903 353 1747 
Q 353 2603 823 3093 
Q 1294 3584 2113 3584 
Q 2378 3584 2631 3529 
Q 2884 3475 3122 3366 
z
" transform="scale(0.015625)"/>
       </defs>
       <use xlink:href="#DejaVuSans-53"/>
       <use xlink:href="#DejaVuSans-70" x="63.476562"/>
       <use xlink:href="#DejaVuSans-69" x="126.953125"/>
       <use xlink:href="#DejaVuSans-63" x="154.736328"/>
       <use xlink:href="#DejaVuSans-65" x="209.716797"/>
       <use xlink:href="#DejaVuSans-4a" x="271.240234"/>
       <use xlink:href="#DejaVuSans-65" x="300.732422"/>
       <use xlink:href="#DejaVuSans-74" x="362.255859"/>
      </g>
     </g>
    </g>
    <g id="xtick_5">
     <g id="line2d_5">
      <g>
       <use xlink:href="#mf62303cc85" x="373.565625" y="457.198125" style="stroke: #000000; stroke-width: 0.8"/>
      </g>
     </g>
     <g id="text_5">
      <!-- Multiple carriers -->
      <g transform="translate(355.749064 537.993847)rotate(-60)scale(0.1 -0.1)">
       <defs>
        <path id="DejaVuSans-4d" d="M 628 4666 
L 1569 4666 
L 2759 1491 
L 3956 4666 
L 4897 4666 
L 4897 0 
L 4281 0 
L 4281 4097 
L 3078 897 
L 2444 897 
L 1241 4097 
L 1241 0 
L 628 0 
L 628 4666 
z
" transform="scale(0.015625)"/>
        <path id="DejaVuSans-75" d="M 544 1381 
L 544 3500 
L 1119 3500 
L 1119 1403 
Q 1119 906 1312 657 
Q 1506 409 1894 409 
Q 2359 409 2629 706 
Q 2900 1003 2900 1516 
L 2900 3500 
L 3475 3500 
L 3475 0 
L 2900 0 
L 2900 538 
Q 2691 219 2414 64 
Q 2138 -91 1772 -91 
Q 1169 -91 856 284 
Q 544 659 544 1381 
z
M 1991 3584 
L 1991 3584 
z
" transform="scale(0.015625)"/>
        <path id="DejaVuSans-6c" d="M 603 4863 
L 1178 4863 
L 1178 0 
L 603 0 
L 603 4863 
z
" transform="scale(0.015625)"/>
       </defs>
       <use xlink:href="#DejaVuSans-4d"/>
       <use xlink:href="#DejaVuSans-75" x="86.279297"/>
       <use xlink:href="#DejaVuSans-6c" x="149.658203"/>
       <use xlink:href="#DejaVuSans-74" x="177.441406"/>
       <use xlink:href="#DejaVuSans-69" x="216.650391"/>
       <use xlink:href="#DejaVuSans-70" x="244.433594"/>
       <use xlink:href="#DejaVuSans-6c" x="307.910156"/>
       <use xlink:href="#DejaVuSans-65" x="335.693359"/>
       <use xlink:href="#DejaVuSans-20" x="397.216797"/>
       <use xlink:href="#DejaVuSans-63" x="429.003906"/>
       <use xlink:href="#DejaVuSans-61" x="483.984375"/>
       <use xlink:href="#DejaVuSans-72" x="545.263672"/>
       <use xlink:href="#DejaVuSans-72" x="584.626953"/>
       <use xlink:href="#DejaVuSans-69" x="625.740234"/>
       <use xlink:href="#DejaVuSans-65" x="653.523438"/>
       <use xlink:href="#DejaVuSans-72" x="715.046875"/>
       <use xlink:href="#DejaVuSans-73" x="756.160156"/>
      </g>
     </g>
    </g>
    <g id="xtick_6">
     <g id="line2d_6">
      <g>
       <use xlink:href="#mf62303cc85" x="443.315625" y="457.198125" style="stroke: #000000; stroke-width: 0.8"/>
      </g>
     </g>
     <g id="text_6">
      <!-- GoAir -->
      <g transform="translate(438.806095 491.896939)rotate(-60)scale(0.1 -0.1)">
       <use xlink:href="#DejaVuSans-47"/>
       <use xlink:href="#DejaVuSans-6f" x="77.490234"/>
       <use xlink:href="#DejaVuSans-41" x="138.671875"/>
       <use xlink:href="#DejaVuSans-69" x="207.080078"/>
       <use xlink:href="#DejaVuSans-72" x="234.863281"/>
      </g>
     </g>
    </g>
    <g id="xtick_7">
     <g id="line2d_7">
      <g>
       <use xlink:href="#mf62303cc85" x="513.065625" y="457.198125" style="stroke: #000000; stroke-width: 0.8"/>
      </g>
     </g>
     <g id="text_7">
      <!-- Vistara -->
      <g transform="translate(506.732658 498.213511)rotate(-60)scale(0.1 -0.1)">
       <defs>
        <path id="DejaVuSans-56" d="M 1831 0 
L 50 4666 
L 709 4666 
L 2188 738 
L 3669 4666 
L 4325 4666 
L 2547 0 
L 1831 0 
z
" transform="scale(0.015625)"/>
       </defs>
       <use xlink:href="#DejaVuSans-56"/>
       <use xlink:href="#DejaVuSans-69" x="66.158203"/>
       <use xlink:href="#DejaVuSans-73" x="93.941406"/>
       <use xlink:href="#DejaVuSans-74" x="146.041016"/>
       <use xlink:href="#DejaVuSans-61" x="185.25"/>
       <use xlink:href="#DejaVuSans-72" x="246.529297"/>
       <use xlink:href="#DejaVuSans-61" x="287.642578"/>
      </g>
     </g>
    </g>
    <g id="xtick_8">
     <g id="line2d_8">
      <g>
       <use xlink:href="#mf62303cc85" x="582.815625" y="457.198125" style="stroke: #000000; stroke-width: 0.8"/>
      </g>
     </g>
     <g id="text_8">
      <!-- Air Asia -->
      <g transform="translate(575.739298 500.788584)rotate(-60)scale(0.1 -0.1)">
       <use xlink:href="#DejaVuSans-41"/>
       <use xlink:href="#DejaVuSans-69" x="68.408203"/>
       <use xlink:href="#DejaVuSans-72" x="96.191406"/>
       <use xlink:href="#DejaVuSans-20" x="137.304688"/>
       <use xlink:href="#DejaVuSans-41" x="169.091797"/>
       <use xlink:href="#DejaVuSans-73" x="237.5"/>
       <use xlink:href="#DejaVuSans-69" x="289.599609"/>
       <use xlink:href="#DejaVuSans-61" x="317.382812"/>
      </g>
     </g>
    </g>
    <g id="xtick_9">
     <g id="line2d_9">
      <g>
       <use xlink:href="#mf62303cc85" x="652.565625" y="457.198125" style="stroke: #000000; stroke-width: 0.8"/>
      </g>
     </g>
     <g id="text_9">
      <!-- Vistara Premium economy -->
      <g transform="translate(622.049454 581.986584)rotate(-60)scale(0.1 -0.1)">
       <defs>
        <path id="DejaVuSans-50" d="M 1259 4147 
L 1259 2394 
L 2053 2394 
Q 2494 2394 2734 2622 
Q 2975 2850 2975 3272 
Q 2975 3691 2734 3919 
Q 2494 4147 2053 4147 
L 1259 4147 
z
M 628 4666 
L 2053 4666 
Q 2838 4666 3239 4311 
Q 3641 3956 3641 3272 
Q 3641 2581 3239 2228 
Q 2838 1875 2053 1875 
L 1259 1875 
L 1259 0 
L 628 0 
L 628 4666 
z
" transform="scale(0.015625)"/>
        <path id="DejaVuSans-6d" d="M 3328 2828 
Q 3544 3216 3844 3400 
Q 4144 3584 4550 3584 
Q 5097 3584 5394 3201 
Q 5691 2819 5691 2113 
L 5691 0 
L 5113 0 
L 5113 2094 
Q 5113 2597 4934 2840 
Q 4756 3084 4391 3084 
Q 3944 3084 3684 2787 
Q 3425 2491 3425 1978 
L 3425 0 
L 2847 0 
L 2847 2094 
Q 2847 2600 2669 2842 
Q 2491 3084 2119 3084 
Q 1678 3084 1418 2786 
Q 1159 2488 1159 1978 
L 1159 0 
L 581 0 
L 581 3500 
L 1159 3500 
L 1159 2956 
Q 1356 3278 1631 3431 
Q 1906 3584 2284 3584 
Q 2666 3584 2933 3390 
Q 3200 3197 3328 2828 
z
" transform="scale(0.015625)"/>
       </defs>
       <use xlink:href="#DejaVuSans-56"/>
       <use xlink:href="#DejaVuSans-69" x="66.158203"/>
       <use xlink:href="#DejaVuSans-73" x="93.941406"/>
       <use xlink:href="#DejaVuSans-74" x="146.041016"/>
       <use xlink:href="#DejaVuSans-61" x="185.25"/>
       <use xlink:href="#DejaVuSans-72" x="246.529297"/>
       <use xlink:href="#DejaVuSans-61" x="287.642578"/>
       <use xlink:href="#DejaVuSans-20" x="348.921875"/>
       <use xlink:href="#DejaVuSans-50" x="380.708984"/>
       <use xlink:href="#DejaVuSans-72" x="439.261719"/>
       <use xlink:href="#DejaVuSans-65" x="478.125"/>
       <use xlink:href="#DejaVuSans-6d" x="539.648438"/>
       <use xlink:href="#DejaVuSans-69" x="637.060547"/>
       <use xlink:href="#DejaVuSans-75" x="664.84375"/>
       <use xlink:href="#DejaVuSans-6d" x="728.222656"/>
       <use xlink:href="#DejaVuSans-20" x="825.634766"/>
       <use xlink:href="#DejaVuSans-65" x="857.421875"/>
       <use xlink:href="#DejaVuSans-63" x="918.945312"/>
       <use xlink:href="#DejaVuSans-6f" x="973.925781"/>
       <use xlink:href="#DejaVuSans-6e" x="1035.107422"/>
       <use xlink:href="#DejaVuSans-6f" x="1098.486328"/>
       <use xlink:href="#DejaVuSans-6d" x="1159.667969"/>
       <use xlink:href="#DejaVuSans-79" x="1257.080078"/>
      </g>
     </g>
    </g>
    <g id="xtick_10">
     <g id="line2d_10">
      <g>
       <use xlink:href="#mf62303cc85" x="722.315625" y="457.198125" style="stroke: #000000; stroke-width: 0.8"/>
      </g>
     </g>
     <g id="text_10">
      <!-- Jet Airways Business -->
      <g transform="translate(699.045548 556.885379)rotate(-60)scale(0.1 -0.1)">
       <defs>
        <path id="DejaVuSans-42" d="M 1259 2228 
L 1259 519 
L 2272 519 
Q 2781 519 3026 730 
Q 3272 941 3272 1375 
Q 3272 1813 3026 2020 
Q 2781 2228 2272 2228 
L 1259 2228 
z
M 1259 4147 
L 1259 2741 
L 2194 2741 
Q 2656 2741 2882 2914 
Q 3109 3088 3109 3444 
Q 3109 3797 2882 3972 
Q 2656 4147 2194 4147 
L 1259 4147 
z
M 628 4666 
L 2241 4666 
Q 2963 4666 3353 4366 
Q 3744 4066 3744 3513 
Q 3744 3084 3544 2831 
Q 3344 2578 2956 2516 
Q 3422 2416 3680 2098 
Q 3938 1781 3938 1306 
Q 3938 681 3513 340 
Q 3088 0 2303 0 
L 628 0 
L 628 4666 
z
" transform="scale(0.015625)"/>
       </defs>
       <use xlink:href="#DejaVuSans-4a"/>
       <use xlink:href="#DejaVuSans-65" x="29.492188"/>
       <use xlink:href="#DejaVuSans-74" x="91.015625"/>
       <use xlink:href="#DejaVuSans-20" x="130.224609"/>
       <use xlink:href="#DejaVuSans-41" x="162.011719"/>
       <use xlink:href="#DejaVuSans-69" x="230.419922"/>
       <use xlink:href="#DejaVuSans-72" x="258.203125"/>
       <use xlink:href="#DejaVuSans-77" x="299.316406"/>
       <use xlink:href="#DejaVuSans-61" x="381.103516"/>
       <use xlink:href="#DejaVuSans-79" x="442.382812"/>
       <use xlink:href="#DejaVuSans-73" x="501.5625"/>
       <use xlink:href="#DejaVuSans-20" x="553.662109"/>
       <use xlink:href="#DejaVuSans-42" x="585.449219"/>
       <use xlink:href="#DejaVuSans-75" x="654.052734"/>
       <use xlink:href="#DejaVuSans-73" x="717.431641"/>
       <use xlink:href="#DejaVuSans-69" x="769.53125"/>
       <use xlink:href="#DejaVuSans-6e" x="797.314453"/>
       <use xlink:href="#DejaVuSans-65" x="860.693359"/>
       <use xlink:href="#DejaVuSans-73" x="922.216797"/>
       <use xlink:href="#DejaVuSans-73" x="974.316406"/>
      </g>
     </g>
    </g>
    <g id="xtick_11">
     <g id="line2d_11">
      <g>
       <use xlink:href="#mf62303cc85" x="792.065625" y="457.198125" style="stroke: #000000; stroke-width: 0.8"/>
      </g>
     </g>
     <g id="text_11">
      <!-- Multiple carriers Premium economy -->
      <g transform="translate(750.065861 621.76692)rotate(-60)scale(0.1 -0.1)">
       <use xlink:href="#DejaVuSans-4d"/>
       <use xlink:href="#DejaVuSans-75" x="86.279297"/>
       <use xlink:href="#DejaVuSans-6c" x="149.658203"/>
       <use xlink:href="#DejaVuSans-74" x="177.441406"/>
       <use xlink:href="#DejaVuSans-69" x="216.650391"/>
       <use xlink:href="#DejaVuSans-70" x="244.433594"/>
       <use xlink:href="#DejaVuSans-6c" x="307.910156"/>
       <use xlink:href="#DejaVuSans-65" x="335.693359"/>
       <use xlink:href="#DejaVuSans-20" x="397.216797"/>
       <use xlink:href="#DejaVuSans-63" x="429.003906"/>
       <use xlink:href="#DejaVuSans-61" x="483.984375"/>
       <use xlink:href="#DejaVuSans-72" x="545.263672"/>
       <use xlink:href="#DejaVuSans-72" x="584.626953"/>
       <use xlink:href="#DejaVuSans-69" x="625.740234"/>
       <use xlink:href="#DejaVuSans-65" x="653.523438"/>
       <use xlink:href="#DejaVuSans-72" x="715.046875"/>
       <use xlink:href="#DejaVuSans-73" x="756.160156"/>
       <use xlink:href="#DejaVuSans-20" x="808.259766"/>
       <use xlink:href="#DejaVuSans-50" x="840.046875"/>
       <use xlink:href="#DejaVuSans-72" x="898.599609"/>
       <use xlink:href="#DejaVuSans-65" x="937.462891"/>
       <use xlink:href="#DejaVuSans-6d" x="998.986328"/>
       <use xlink:href="#DejaVuSans-69" x="1096.398438"/>
       <use xlink:href="#DejaVuSans-75" x="1124.181641"/>
       <use xlink:href="#DejaVuSans-6d" x="1187.560547"/>
       <use xlink:href="#DejaVuSans-20" x="1284.972656"/>
       <use xlink:href="#DejaVuSans-65" x="1316.759766"/>
       <use xlink:href="#DejaVuSans-63" x="1378.283203"/>
       <use xlink:href="#DejaVuSans-6f" x="1433.263672"/>
       <use xlink:href="#DejaVuSans-6e" x="1494.445312"/>
       <use xlink:href="#DejaVuSans-6f" x="1557.824219"/>
       <use xlink:href="#DejaVuSans-6d" x="1619.005859"/>
       <use xlink:href="#DejaVuSans-79" x="1716.417969"/>
      </g>
     </g>
    </g>
    <g id="xtick_12">
     <g id="line2d_12">
      <g>
       <use xlink:href="#mf62303cc85" x="861.815625" y="457.198125" style="stroke: #000000; stroke-width: 0.8"/>
      </g>
     </g>
     <g id="text_12">
      <!-- Trujet -->
      <g transform="translate(857.222111 492.187869)rotate(-60)scale(0.1 -0.1)">
       <defs>
        <path id="DejaVuSans-54" d="M -19 4666 
L 3928 4666 
L 3928 4134 
L 2272 4134 
L 2272 0 
L 1638 0 
L 1638 4134 
L -19 4134 
L -19 4666 
z
" transform="scale(0.015625)"/>
        <path id="DejaVuSans-6a" d="M 603 3500 
L 1178 3500 
L 1178 -63 
Q 1178 -731 923 -1031 
Q 669 -1331 103 -1331 
L -116 -1331 
L -116 -844 
L 38 -844 
Q 366 -844 484 -692 
Q 603 -541 603 -63 
L 603 3500 
z
M 603 4863 
L 1178 4863 
L 1178 4134 
L 603 4134 
L 603 4863 
z
" transform="scale(0.015625)"/>
       </defs>
       <use xlink:href="#DejaVuSans-54"/>
       <use xlink:href="#DejaVuSans-72" x="46.333984"/>
       <use xlink:href="#DejaVuSans-75" x="87.447266"/>
       <use xlink:href="#DejaVuSans-6a" x="150.826172"/>
       <use xlink:href="#DejaVuSans-65" x="178.609375"/>
       <use xlink:href="#DejaVuSans-74" x="240.132812"/>
      </g>
     </g>
    </g>
    <g id="text_13">
     <!-- Airline -->
     <g transform="translate(462.302344 634.405201)scale(0.1 -0.1)">
      <use xlink:href="#DejaVuSans-41"/>
      <use xlink:href="#DejaVuSans-69" x="68.408203"/>
      <use xlink:href="#DejaVuSans-72" x="96.191406"/>
      <use xlink:href="#DejaVuSans-6c" x="137.304688"/>
      <use xlink:href="#DejaVuSans-69" x="165.087891"/>
      <use xlink:href="#DejaVuSans-6e" x="192.871094"/>
      <use xlink:href="#DejaVuSans-65" x="256.25"/>
     </g>
    </g>
   </g>
   <g id="matplotlib.axis_2">
    <g id="ytick_1">
     <g id="line2d_13">
      <defs>
       <path id="m7b1a091bb7" d="M 0 0 
L -3.5 0 
" style="stroke: #000000; stroke-width: 0.8"/>
      </defs>
      <g>
       <use xlink:href="#m7b1a091bb7" x="59.690625" y="457.198125" style="stroke: #000000; stroke-width: 0.8"/>
      </g>
     </g>
     <g id="text_14">
      <!-- 0 -->
      <g transform="translate(46.328125 460.997344)scale(0.1 -0.1)">
       <defs>
        <path id="DejaVuSans-30" d="M 2034 4250 
Q 1547 4250 1301 3770 
Q 1056 3291 1056 2328 
Q 1056 1369 1301 889 
Q 1547 409 2034 409 
Q 2525 409 2770 889 
Q 3016 1369 3016 2328 
Q 3016 3291 2770 3770 
Q 2525 4250 2034 4250 
z
M 2034 4750 
Q 2819 4750 3233 4129 
Q 3647 3509 3647 2328 
Q 3647 1150 3233 529 
Q 2819 -91 2034 -91 
Q 1250 -91 836 529 
Q 422 1150 422 2328 
Q 422 3509 836 4129 
Q 1250 4750 2034 4750 
z
" transform="scale(0.015625)"/>
       </defs>
       <use xlink:href="#DejaVuSans-30"/>
      </g>
     </g>
    </g>
    <g id="ytick_2">
     <g id="line2d_14">
      <g>
       <use xlink:href="#m7b1a091bb7" x="59.690625" y="395.911788" style="stroke: #000000; stroke-width: 0.8"/>
      </g>
     </g>
     <g id="text_15">
      <!-- 10000 -->
      <g transform="translate(20.878125 399.711007)scale(0.1 -0.1)">
       <defs>
        <path id="DejaVuSans-31" d="M 794 531 
L 1825 531 
L 1825 4091 
L 703 3866 
L 703 4441 
L 1819 4666 
L 2450 4666 
L 2450 531 
L 3481 531 
L 3481 0 
L 794 0 
L 794 531 
z
" transform="scale(0.015625)"/>
       </defs>
       <use xlink:href="#DejaVuSans-31"/>
       <use xlink:href="#DejaVuSans-30" x="63.623047"/>
       <use xlink:href="#DejaVuSans-30" x="127.246094"/>
       <use xlink:href="#DejaVuSans-30" x="190.869141"/>
       <use xlink:href="#DejaVuSans-30" x="254.492188"/>
      </g>
     </g>
    </g>
    <g id="ytick_3">
     <g id="line2d_15">
      <g>
       <use xlink:href="#m7b1a091bb7" x="59.690625" y="334.625452" style="stroke: #000000; stroke-width: 0.8"/>
      </g>
     </g>
     <g id="text_16">
      <!-- 20000 -->
      <g transform="translate(20.878125 338.424671)scale(0.1 -0.1)">
       <defs>
        <path id="DejaVuSans-32" d="M 1228 531 
L 3431 531 
L 3431 0 
L 469 0 
L 469 531 
Q 828 903 1448 1529 
Q 2069 2156 2228 2338 
Q 2531 2678 2651 2914 
Q 2772 3150 2772 3378 
Q 2772 3750 2511 3984 
Q 2250 4219 1831 4219 
Q 1534 4219 1204 4116 
Q 875 4013 500 3803 
L 500 4441 
Q 881 4594 1212 4672 
Q 1544 4750 1819 4750 
Q 2544 4750 2975 4387 
Q 3406 4025 3406 3419 
Q 3406 3131 3298 2873 
Q 3191 2616 2906 2266 
Q 2828 2175 2409 1742 
Q 1991 1309 1228 531 
z
" transform="scale(0.015625)"/>
       </defs>
       <use xlink:href="#DejaVuSans-32"/>
       <use xlink:href="#DejaVuSans-30" x="63.623047"/>
       <use xlink:href="#DejaVuSans-30" x="127.246094"/>
       <use xlink:href="#DejaVuSans-30" x="190.869141"/>
       <use xlink:href="#DejaVuSans-30" x="254.492188"/>
      </g>
     </g>
    </g>
    <g id="ytick_4">
     <g id="line2d_16">
      <g>
       <use xlink:href="#m7b1a091bb7" x="59.690625" y="273.339115" style="stroke: #000000; stroke-width: 0.8"/>
      </g>
     </g>
     <g id="text_17">
      <!-- 30000 -->
      <g transform="translate(20.878125 277.138334)scale(0.1 -0.1)">
       <defs>
        <path id="DejaVuSans-33" d="M 2597 2516 
Q 3050 2419 3304 2112 
Q 3559 1806 3559 1356 
Q 3559 666 3084 287 
Q 2609 -91 1734 -91 
Q 1441 -91 1130 -33 
Q 819 25 488 141 
L 488 750 
Q 750 597 1062 519 
Q 1375 441 1716 441 
Q 2309 441 2620 675 
Q 2931 909 2931 1356 
Q 2931 1769 2642 2001 
Q 2353 2234 1838 2234 
L 1294 2234 
L 1294 2753 
L 1863 2753 
Q 2328 2753 2575 2939 
Q 2822 3125 2822 3475 
Q 2822 3834 2567 4026 
Q 2313 4219 1838 4219 
Q 1578 4219 1281 4162 
Q 984 4106 628 3988 
L 628 4550 
Q 988 4650 1302 4700 
Q 1616 4750 1894 4750 
Q 2613 4750 3031 4423 
Q 3450 4097 3450 3541 
Q 3450 3153 3228 2886 
Q 3006 2619 2597 2516 
z
" transform="scale(0.015625)"/>
       </defs>
       <use xlink:href="#DejaVuSans-33"/>
       <use xlink:href="#DejaVuSans-30" x="63.623047"/>
       <use xlink:href="#DejaVuSans-30" x="127.246094"/>
       <use xlink:href="#DejaVuSans-30" x="190.869141"/>
       <use xlink:href="#DejaVuSans-30" x="254.492188"/>
      </g>
     </g>
    </g>
    <g id="ytick_5">
     <g id="line2d_17">
      <g>
       <use xlink:href="#m7b1a091bb7" x="59.690625" y="212.052779" style="stroke: #000000; stroke-width: 0.8"/>
      </g>
     </g>
     <g id="text_18">
      <!-- 40000 -->
      <g transform="translate(20.878125 215.851997)scale(0.1 -0.1)">
       <defs>
        <path id="DejaVuSans-34" d="M 2419 4116 
L 825 1625 
L 2419 1625 
L 2419 4116 
z
M 2253 4666 
L 3047 4666 
L 3047 1625 
L 3713 1625 
L 3713 1100 
L 3047 1100 
L 3047 0 
L 2419 0 
L 2419 1100 
L 313 1100 
L 313 1709 
L 2253 4666 
z
" transform="scale(0.015625)"/>
       </defs>
       <use xlink:href="#DejaVuSans-34"/>
       <use xlink:href="#DejaVuSans-30" x="63.623047"/>
       <use xlink:href="#DejaVuSans-30" x="127.246094"/>
       <use xlink:href="#DejaVuSans-30" x="190.869141"/>
       <use xlink:href="#DejaVuSans-30" x="254.492188"/>
      </g>
     </g>
    </g>
    <g id="ytick_6">
     <g id="line2d_18">
      <g>
       <use xlink:href="#m7b1a091bb7" x="59.690625" y="150.766442" style="stroke: #000000; stroke-width: 0.8"/>
      </g>
     </g>
     <g id="text_19">
      <!-- 50000 -->
      <g transform="translate(20.878125 154.565661)scale(0.1 -0.1)">
       <defs>
        <path id="DejaVuSans-35" d="M 691 4666 
L 3169 4666 
L 3169 4134 
L 1269 4134 
L 1269 2991 
Q 1406 3038 1543 3061 
Q 1681 3084 1819 3084 
Q 2600 3084 3056 2656 
Q 3513 2228 3513 1497 
Q 3513 744 3044 326 
Q 2575 -91 1722 -91 
Q 1428 -91 1123 -41 
Q 819 9 494 109 
L 494 744 
Q 775 591 1075 516 
Q 1375 441 1709 441 
Q 2250 441 2565 725 
Q 2881 1009 2881 1497 
Q 2881 1984 2565 2268 
Q 2250 2553 1709 2553 
Q 1456 2553 1204 2497 
Q 953 2441 691 2322 
L 691 4666 
z
" transform="scale(0.015625)"/>
       </defs>
       <use xlink:href="#DejaVuSans-35"/>
       <use xlink:href="#DejaVuSans-30" x="63.623047"/>
       <use xlink:href="#DejaVuSans-30" x="127.246094"/>
       <use xlink:href="#DejaVuSans-30" x="190.869141"/>
       <use xlink:href="#DejaVuSans-30" x="254.492188"/>
      </g>
     </g>
    </g>
    <g id="ytick_7">
     <g id="line2d_19">
      <g>
       <use xlink:href="#m7b1a091bb7" x="59.690625" y="89.480105" style="stroke: #000000; stroke-width: 0.8"/>
      </g>
     </g>
     <g id="text_20">
      <!-- 60000 -->
      <g transform="translate(20.878125 93.279324)scale(0.1 -0.1)">
       <defs>
        <path id="DejaVuSans-36" d="M 2113 2584 
Q 1688 2584 1439 2293 
Q 1191 2003 1191 1497 
Q 1191 994 1439 701 
Q 1688 409 2113 409 
Q 2538 409 2786 701 
Q 3034 994 3034 1497 
Q 3034 2003 2786 2293 
Q 2538 2584 2113 2584 
z
M 3366 4563 
L 3366 3988 
Q 3128 4100 2886 4159 
Q 2644 4219 2406 4219 
Q 1781 4219 1451 3797 
Q 1122 3375 1075 2522 
Q 1259 2794 1537 2939 
Q 1816 3084 2150 3084 
Q 2853 3084 3261 2657 
Q 3669 2231 3669 1497 
Q 3669 778 3244 343 
Q 2819 -91 2113 -91 
Q 1303 -91 875 529 
Q 447 1150 447 2328 
Q 447 3434 972 4092 
Q 1497 4750 2381 4750 
Q 2619 4750 2861 4703 
Q 3103 4656 3366 4563 
z
" transform="scale(0.015625)"/>
       </defs>
       <use xlink:href="#DejaVuSans-36"/>
       <use xlink:href="#DejaVuSans-30" x="63.623047"/>
       <use xlink:href="#DejaVuSans-30" x="127.246094"/>
       <use xlink:href="#DejaVuSans-30" x="190.869141"/>
       <use xlink:href="#DejaVuSans-30" x="254.492188"/>
      </g>
     </g>
    </g>
    <g id="ytick_8">
     <g id="line2d_20">
      <g>
       <use xlink:href="#m7b1a091bb7" x="59.690625" y="28.193769" style="stroke: #000000; stroke-width: 0.8"/>
      </g>
     </g>
     <g id="text_21">
      <!-- 70000 -->
      <g transform="translate(20.878125 31.992987)scale(0.1 -0.1)">
       <defs>
        <path id="DejaVuSans-37" d="M 525 4666 
L 3525 4666 
L 3525 4397 
L 1831 0 
L 1172 0 
L 2766 4134 
L 525 4134 
L 525 4666 
z
" transform="scale(0.015625)"/>
       </defs>
       <use xlink:href="#DejaVuSans-37"/>
       <use xlink:href="#DejaVuSans-30" x="63.623047"/>
       <use xlink:href="#DejaVuSans-30" x="127.246094"/>
       <use xlink:href="#DejaVuSans-30" x="190.869141"/>
       <use xlink:href="#DejaVuSans-30" x="254.492188"/>
      </g>
     </g>
    </g>
    <g id="text_22">
     <!-- Price -->
     <g transform="translate(14.798438 251.955781)rotate(-90)scale(0.1 -0.1)">
      <use xlink:href="#DejaVuSans-50"/>
      <use xlink:href="#DejaVuSans-72" x="58.552734"/>
      <use xlink:href="#DejaVuSans-69" x="99.666016"/>
      <use xlink:href="#DejaVuSans-63" x="127.449219"/>
      <use xlink:href="#DejaVuSans-65" x="182.429688"/>
     </g>
    </g>
   </g>
   <g id="line2d_21">
    <path d="M 73.640625 414.618803 
L 73.640625 411.305785 
" clip-path="url(#p9aed26becb)" style="fill: none; stroke: #424242; stroke-width: 2.7; stroke-linecap: square"/>
   </g>
   <g id="line2d_22">
    <path d="M 143.390625 394.1813 
L 143.390625 389.008565 
" clip-path="url(#p9aed26becb)" style="fill: none; stroke: #424242; stroke-width: 2.7; stroke-linecap: square"/>
   </g>
   <g id="line2d_23">
    <path d="M 213.140625 377.652441 
L 213.140625 372.430225 
" clip-path="url(#p9aed26becb)" style="fill: none; stroke: #424242; stroke-width: 2.7; stroke-linecap: square"/>
   </g>
   <g id="line2d_24">
    <path d="M 282.890625 426.777996 
L 282.890625 422.159378 
" clip-path="url(#p9aed26becb)" style="fill: none; stroke: #424242; stroke-width: 2.7; stroke-linecap: square"/>
   </g>
   <g id="line2d_25">
    <path d="M 352.640625 382.290933 
L 352.640625 376.150611 
" clip-path="url(#p9aed26becb)" style="fill: none; stroke: #424242; stroke-width: 2.7; stroke-linecap: square"/>
   </g>
   <g id="line2d_26">
    <path d="M 422.390625 414.863416 
L 422.390625 399.937109 
" clip-path="url(#p9aed26becb)" style="fill: none; stroke: #424242; stroke-width: 2.7; stroke-linecap: square"/>
   </g>
   <g id="line2d_27">
    <path d="M 492.140625 401.374191 
L 492.140625 392.687757 
" clip-path="url(#p9aed26becb)" style="fill: none; stroke: #424242; stroke-width: 2.7; stroke-linecap: square"/>
   </g>
   <g id="line2d_28">
    <path d="M 561.890625 424.299918 
L 561.890625 416.714731 
" clip-path="url(#p9aed26becb)" style="fill: none; stroke: #424242; stroke-width: 2.7; stroke-linecap: square"/>
   </g>
   <g id="line2d_29">
    <path d="M 631.640625 401.274343 
L 631.640625 384.923148 
" clip-path="url(#p9aed26becb)" style="fill: none; stroke: #424242; stroke-width: 2.7; stroke-linecap: square"/>
   </g>
   <g id="line2d_30">
    <path d="M 701.390625 144.5183 
L 701.390625 43.026696 
" clip-path="url(#p9aed26becb)" style="fill: none; stroke: #424242; stroke-width: 2.7; stroke-linecap: square"/>
   </g>
   <g id="line2d_31">
    <path d="M 771.140625 392.207454 
L 771.140625 381.478008 
" clip-path="url(#p9aed26becb)" style="fill: none; stroke: #424242; stroke-width: 2.7; stroke-linecap: square"/>
   </g>
   <g id="line2d_32">
    <path clip-path="url(#p9aed26becb)" style="fill: none; stroke: #424242; stroke-width: 2.7; stroke-linecap: square"/>
   </g>
   <g id="line2d_33">
    <path d="M 87.590625 428.579566 
L 87.590625 427.26719 
" clip-path="url(#p9aed26becb)" style="fill: none; stroke: #424242; stroke-width: 2.7; stroke-linecap: square"/>
   </g>
   <g id="line2d_34">
    <path d="M 157.340625 421.021823 
L 157.340625 416.72574 
" clip-path="url(#p9aed26becb)" style="fill: none; stroke: #424242; stroke-width: 2.7; stroke-linecap: square"/>
   </g>
   <g id="line2d_35">
    <path d="M 227.090625 412.871246 
L 227.090625 408.582208 
" clip-path="url(#p9aed26becb)" style="fill: none; stroke: #424242; stroke-width: 2.7; stroke-linecap: square"/>
   </g>
   <g id="line2d_36">
    <path d="M 296.840625 431.984744 
L 296.840625 430.367885 
" clip-path="url(#p9aed26becb)" style="fill: none; stroke: #424242; stroke-width: 2.7; stroke-linecap: square"/>
   </g>
   <g id="line2d_37">
    <path d="M 366.590625 411.440654 
L 366.590625 396.945545 
" clip-path="url(#p9aed26becb)" style="fill: none; stroke: #424242; stroke-width: 2.7; stroke-linecap: square"/>
   </g>
   <g id="line2d_38">
    <path d="M 436.340625 428.445936 
L 436.340625 425.20243 
" clip-path="url(#p9aed26becb)" style="fill: none; stroke: #424242; stroke-width: 2.7; stroke-linecap: square"/>
   </g>
   <g id="line2d_39">
    <path d="M 506.090625 420.202922 
L 506.090625 416.859458 
" clip-path="url(#p9aed26becb)" style="fill: none; stroke: #424242; stroke-width: 2.7; stroke-linecap: square"/>
   </g>
   <g id="line2d_40">
    <path d="M 575.840625 429.743386 
L 575.840625 426.54808 
" clip-path="url(#p9aed26becb)" style="fill: none; stroke: #424242; stroke-width: 2.7; stroke-linecap: square"/>
   </g>
   <g id="line2d_41">
    <path clip-path="url(#p9aed26becb)" style="fill: none; stroke: #424242; stroke-width: 2.7; stroke-linecap: square"/>
   </g>
   <g id="line2d_42">
    <path clip-path="url(#p9aed26becb)" style="fill: none; stroke: #424242; stroke-width: 2.7; stroke-linecap: square"/>
   </g>
   <g id="line2d_43">
    <path clip-path="url(#p9aed26becb)" style="fill: none; stroke: #424242; stroke-width: 2.7; stroke-linecap: square"/>
   </g>
   <g id="line2d_44">
    <path clip-path="url(#p9aed26becb)" style="fill: none; stroke: #424242; stroke-width: 2.7; stroke-linecap: square"/>
   </g>
   <g id="line2d_45">
    <path d="M 101.540625 425.932283 
L 101.540625 424.361571 
" clip-path="url(#p9aed26becb)" style="fill: none; stroke: #424242; stroke-width: 2.7; stroke-linecap: square"/>
   </g>
   <g id="line2d_46">
    <path d="M 171.290625 398.798769 
L 171.290625 395.720581 
" clip-path="url(#p9aed26becb)" style="fill: none; stroke: #424242; stroke-width: 2.7; stroke-linecap: square"/>
   </g>
   <g id="line2d_47">
    <path d="M 241.040625 386.862488 
L 241.040625 384.698697 
" clip-path="url(#p9aed26becb)" style="fill: none; stroke: #424242; stroke-width: 2.7; stroke-linecap: square"/>
   </g>
   <g id="line2d_48">
    <path d="M 310.790625 433.569929 
L 310.790625 430.910657 
" clip-path="url(#p9aed26becb)" style="fill: none; stroke: #424242; stroke-width: 2.7; stroke-linecap: square"/>
   </g>
   <g id="line2d_49">
    <path d="M 380.540625 396.829076 
L 380.540625 393.220798 
" clip-path="url(#p9aed26becb)" style="fill: none; stroke: #424242; stroke-width: 2.7; stroke-linecap: square"/>
   </g>
   <g id="line2d_50">
    <path d="M 450.290625 424.773636 
L 450.290625 418.384183 
" clip-path="url(#p9aed26becb)" style="fill: none; stroke: #424242; stroke-width: 2.7; stroke-linecap: square"/>
   </g>
   <g id="line2d_51">
    <path d="M 520.040625 412.315323 
L 520.040625 408.30937 
" clip-path="url(#p9aed26becb)" style="fill: none; stroke: #424242; stroke-width: 2.7; stroke-linecap: square"/>
   </g>
   <g id="line2d_52">
    <path d="M 589.790625 427.06235 
L 589.790625 423.945651 
" clip-path="url(#p9aed26becb)" style="fill: none; stroke: #424242; stroke-width: 2.7; stroke-linecap: square"/>
   </g>
   <g id="line2d_53">
    <path clip-path="url(#p9aed26becb)" style="fill: none; stroke: #424242; stroke-width: 2.7; stroke-linecap: square"/>
   </g>
   <g id="line2d_54">
    <path clip-path="url(#p9aed26becb)" style="fill: none; stroke: #424242; stroke-width: 2.7; stroke-linecap: square"/>
   </g>
   <g id="line2d_55">
    <path clip-path="url(#p9aed26becb)" style="fill: none; stroke: #424242; stroke-width: 2.7; stroke-linecap: square"/>
   </g>
   <g id="line2d_56">
    <path clip-path="url(#p9aed26becb)" style="fill: none; stroke: #424242; stroke-width: 2.7; stroke-linecap: square"/>
   </g>
   <g id="line2d_57">
    <path d="M 115.490625 426.491419 
L 115.490625 425.112785 
" clip-path="url(#p9aed26becb)" style="fill: none; stroke: #424242; stroke-width: 2.7; stroke-linecap: square"/>
   </g>
   <g id="line2d_58">
    <path d="M 185.240625 402.251355 
L 185.240625 398.904028 
" clip-path="url(#p9aed26becb)" style="fill: none; stroke: #424242; stroke-width: 2.7; stroke-linecap: square"/>
   </g>
   <g id="line2d_59">
    <path d="M 254.990625 389.251468 
L 254.990625 387.388097 
" clip-path="url(#p9aed26becb)" style="fill: none; stroke: #424242; stroke-width: 2.7; stroke-linecap: square"/>
   </g>
   <g id="line2d_60">
    <path d="M 324.740625 434.108681 
L 324.740625 432.024369 
" clip-path="url(#p9aed26becb)" style="fill: none; stroke: #424242; stroke-width: 2.7; stroke-linecap: square"/>
   </g>
   <g id="line2d_61">
    <path d="M 394.490625 395.067043 
L 394.490625 391.757231 
" clip-path="url(#p9aed26becb)" style="fill: none; stroke: #424242; stroke-width: 2.7; stroke-linecap: square"/>
   </g>
   <g id="line2d_62">
    <path d="M 464.240625 428.758887 
L 464.240625 423.467892 
" clip-path="url(#p9aed26becb)" style="fill: none; stroke: #424242; stroke-width: 2.7; stroke-linecap: square"/>
   </g>
   <g id="line2d_63">
    <path d="M 533.990625 417.385429 
L 533.990625 412.210662 
" clip-path="url(#p9aed26becb)" style="fill: none; stroke: #424242; stroke-width: 2.7; stroke-linecap: square"/>
   </g>
   <g id="line2d_64">
    <path d="M 603.740625 421.477877 
L 603.740625 415.501734 
" clip-path="url(#p9aed26becb)" style="fill: none; stroke: #424242; stroke-width: 2.7; stroke-linecap: square"/>
   </g>
   <g id="line2d_65">
    <path clip-path="url(#p9aed26becb)" style="fill: none; stroke: #424242; stroke-width: 2.7; stroke-linecap: square"/>
   </g>
   <g id="line2d_66">
    <path clip-path="url(#p9aed26becb)" style="fill: none; stroke: #424242; stroke-width: 2.7; stroke-linecap: square"/>
   </g>
   <g id="line2d_67">
    <path clip-path="url(#p9aed26becb)" style="fill: none; stroke: #424242; stroke-width: 2.7; stroke-linecap: square"/>
   </g>
   <g id="line2d_68">
    <path clip-path="url(#p9aed26becb)" style="fill: none; stroke: #424242; stroke-width: 2.7; stroke-linecap: square"/>
   </g>
   <g id="patch_51">
    <path d="M 59.690625 457.198125 
L 59.690625 22.318125 
" style="fill: none; stroke: #000000; stroke-width: 0.8; stroke-linejoin: miter; stroke-linecap: square"/>
   </g>
   <g id="patch_52">
    <path d="M 896.690625 457.198125 
L 896.690625 22.318125 
" style="fill: none; stroke: #000000; stroke-width: 0.8; stroke-linejoin: miter; stroke-linecap: square"/>
   </g>
   <g id="patch_53">
    <path d="M 59.690625 457.198125 
L 896.690625 457.198125 
" style="fill: none; stroke: #000000; stroke-width: 0.8; stroke-linejoin: miter; stroke-linecap: square"/>
   </g>
   <g id="patch_54">
    <path d="M 59.690625 22.318125 
L 896.690625 22.318125 
" style="fill: none; stroke: #000000; stroke-width: 0.8; stroke-linejoin: miter; stroke-linecap: square"/>
   </g>
   <g id="text_23">
    <!-- Fares of each airline by month -->
    <g transform="translate(387.201563 16.318125)scale(0.12 -0.12)">
     <defs>
      <path id="DejaVuSans-46" d="M 628 4666 
L 3309 4666 
L 3309 4134 
L 1259 4134 
L 1259 2759 
L 3109 2759 
L 3109 2228 
L 1259 2228 
L 1259 0 
L 628 0 
L 628 4666 
z
" transform="scale(0.015625)"/>
      <path id="DejaVuSans-66" d="M 2375 4863 
L 2375 4384 
L 1825 4384 
Q 1516 4384 1395 4259 
Q 1275 4134 1275 3809 
L 1275 3500 
L 2222 3500 
L 2222 3053 
L 1275 3053 
L 1275 0 
L 697 0 
L 697 3053 
L 147 3053 
L 147 3500 
L 697 3500 
L 697 3744 
Q 697 4328 969 4595 
Q 1241 4863 1831 4863 
L 2375 4863 
z
" transform="scale(0.015625)"/>
      <path id="DejaVuSans-68" d="M 3513 2113 
L 3513 0 
L 2938 0 
L 2938 2094 
Q 2938 2591 2744 2837 
Q 2550 3084 2163 3084 
Q 1697 3084 1428 2787 
Q 1159 2491 1159 1978 
L 1159 0 
L 581 0 
L 581 4863 
L 1159 4863 
L 1159 2956 
Q 1366 3272 1645 3428 
Q 1925 3584 2291 3584 
Q 2894 3584 3203 3211 
Q 3513 2838 3513 2113 
z
" transform="scale(0.015625)"/>
      <path id="DejaVuSans-62" d="M 3116 1747 
Q 3116 2381 2855 2742 
Q 2594 3103 2138 3103 
Q 1681 3103 1420 2742 
Q 1159 2381 1159 1747 
Q 1159 1113 1420 752 
Q 1681 391 2138 391 
Q 2594 391 2855 752 
Q 3116 1113 3116 1747 
z
M 1159 2969 
Q 1341 3281 1617 3432 
Q 1894 3584 2278 3584 
Q 2916 3584 3314 3078 
Q 3713 2572 3713 1747 
Q 3713 922 3314 415 
Q 2916 -91 2278 -91 
Q 1894 -91 1617 61 
Q 1341 213 1159 525 
L 1159 0 
L 581 0 
L 581 4863 
L 1159 4863 
L 1159 2969 
z
" transform="scale(0.015625)"/>
     </defs>
     <use xlink:href="#DejaVuSans-46"/>
     <use xlink:href="#DejaVuSans-61" x="48.394531"/>
     <use xlink:href="#DejaVuSans-72" x="109.673828"/>
     <use xlink:href="#DejaVuSans-65" x="148.537109"/>
     <use xlink:href="#DejaVuSans-73" x="210.060547"/>
     <use xlink:href="#DejaVuSans-20" x="262.160156"/>
     <use xlink:href="#DejaVuSans-6f" x="293.947266"/>
     <use xlink:href="#DejaVuSans-66" x="355.128906"/>
     <use xlink:href="#DejaVuSans-20" x="390.333984"/>
     <use xlink:href="#DejaVuSans-65" x="422.121094"/>
     <use xlink:href="#DejaVuSans-61" x="483.644531"/>
     <use xlink:href="#DejaVuSans-63" x="544.923828"/>
     <use xlink:href="#DejaVuSans-68" x="599.904297"/>
     <use xlink:href="#DejaVuSans-20" x="663.283203"/>
     <use xlink:href="#DejaVuSans-61" x="695.070312"/>
     <use xlink:href="#DejaVuSans-69" x="756.349609"/>
     <use xlink:href="#DejaVuSans-72" x="784.132812"/>
     <use xlink:href="#DejaVuSans-6c" x="825.246094"/>
     <use xlink:href="#DejaVuSans-69" x="853.029297"/>
     <use xlink:href="#DejaVuSans-6e" x="880.8125"/>
     <use xlink:href="#DejaVuSans-65" x="944.191406"/>
     <use xlink:href="#DejaVuSans-20" x="1005.714844"/>
     <use xlink:href="#DejaVuSans-62" x="1037.501953"/>
     <use xlink:href="#DejaVuSans-79" x="1100.978516"/>
     <use xlink:href="#DejaVuSans-20" x="1160.158203"/>
     <use xlink:href="#DejaVuSans-6d" x="1191.945312"/>
     <use xlink:href="#DejaVuSans-6f" x="1289.357422"/>
     <use xlink:href="#DejaVuSans-6e" x="1350.539062"/>
     <use xlink:href="#DejaVuSans-74" x="1413.917969"/>
     <use xlink:href="#DejaVuSans-68" x="1453.126953"/>
    </g>
   </g>
   <g id="legend_1">
    <g id="patch_55">
     <path d="M 66.690625 103.70875 
L 105.053125 103.70875 
Q 107.053125 103.70875 107.053125 101.70875 
L 107.053125 29.318125 
Q 107.053125 27.318125 105.053125 27.318125 
L 66.690625 27.318125 
Q 64.690625 27.318125 64.690625 29.318125 
L 64.690625 101.70875 
Q 64.690625 103.70875 66.690625 103.70875 
z
" style="fill: #ffffff; opacity: 0.8; stroke: #cccccc; stroke-linejoin: miter"/>
    </g>
    <g id="text_24">
     <!-- Month -->
     <g transform="translate(70.200781 38.916562)scale(0.1 -0.1)">
      <use xlink:href="#DejaVuSans-4d"/>
      <use xlink:href="#DejaVuSans-6f" x="86.279297"/>
      <use xlink:href="#DejaVuSans-6e" x="147.460938"/>
      <use xlink:href="#DejaVuSans-74" x="210.839844"/>
      <use xlink:href="#DejaVuSans-68" x="250.048828"/>
     </g>
    </g>
    <g id="patch_56">
     <path d="M 68.690625 53.594687 
L 88.690625 53.594687 
L 88.690625 46.594687 
L 68.690625 46.594687 
z
" style="fill: #3274a1"/>
    </g>
    <g id="text_25">
     <!-- 3 -->
     <g transform="translate(96.690625 53.594687)scale(0.1 -0.1)">
      <use xlink:href="#DejaVuSans-33"/>
     </g>
    </g>
    <g id="patch_57">
     <path d="M 68.690625 68.272812 
L 88.690625 68.272812 
L 88.690625 61.272812 
L 68.690625 61.272812 
z
" style="fill: #e1812c"/>
    </g>
    <g id="text_26">
     <!-- 4 -->
     <g transform="translate(96.690625 68.272812)scale(0.1 -0.1)">
      <use xlink:href="#DejaVuSans-34"/>
     </g>
    </g>
    <g id="patch_58">
     <path d="M 68.690625 82.950938 
L 88.690625 82.950938 
L 88.690625 75.950938 
L 68.690625 75.950938 
z
" style="fill: #3a923a"/>
    </g>
    <g id="text_27">
     <!-- 5 -->
     <g transform="translate(96.690625 82.950938)scale(0.1 -0.1)">
      <use xlink:href="#DejaVuSans-35"/>
     </g>
    </g>
    <g id="patch_59">
     <path d="M 68.690625 97.629062 
L 88.690625 97.629062 
L 88.690625 90.629062 
L 68.690625 90.629062 
z
" style="fill: #c03d3e"/>
    </g>
    <g id="text_28">
     <!-- 6 -->
     <g transform="translate(96.690625 97.629062)scale(0.1 -0.1)">
      <use xlink:href="#DejaVuSans-36"/>
     </g>
    </g>
   </g>
  </g>
 </g>
 <defs>
  <clipPath id="p9aed26becb">
   <rect x="59.690625" y="22.318125" width="837" height="434.88"/>
  </clipPath>
 </defs>
</svg>
